<svg id="Layer_1" data-name="Layer 1" xmlns="http://www.w3.org/2000/svg" xmlns:xlink="http://www.w3.org/1999/xlink" viewBox="0 0 745 200"><defs><style>.cls-1{fill:url(#Blue_grad);}.cls-2{fill:url(#Blue_grad-2);}.cls-3{fill:url(#Blue_grad-3);}.cls-4{fill:url(#Blue_grad-4);}.cls-5{fill:url(#Blue_grad-5);}.cls-6{fill:url(#Blue_grad-6);}.cls-7{fill:url(#Blue_grad-7);}.cls-8{fill:#2c3e50;}.cls-9{fill:#151e26;}</style><linearGradient id="Blue_grad" x1="154.28" y1="49.73" x2="163.92" y2="49.73" gradientUnits="userSpaceOnUse"><stop offset="0" stop-color="#3b97d3"/><stop offset="1" stop-color="#2880ba"/></linearGradient><linearGradient id="Blue_grad-2" x1="115.71" y1="44.24" x2="144.64" y2="44.24" xlink:href="#Blue_grad"/><linearGradient id="Blue_grad-3" x1="96.42" y1="19.18" x2="106.07" y2="19.18" xlink:href="#Blue_grad"/><linearGradient id="Blue_grad-4" x1="56.65" y1="185.28" x2="86.78" y2="185.28" xlink:href="#Blue_grad"/><linearGradient id="Blue_grad-5" x1="0" y1="109.72" x2="86.78" y2="109.72" xlink:href="#Blue_grad"/><linearGradient id="Blue_grad-6" x1="9.79" y1="148.09" x2="86.78" y2="148.09" xlink:href="#Blue_grad"/><linearGradient id="Blue_grad-7" x1="0" y1="47.41" x2="86.78" y2="47.41" xlink:href="#Blue_grad"/></defs><title>Horizontal Blue</title><polygon class="cls-1" points="163.92 44.45 163.92 55.02 154.28 50.39 154.28 46.22 163.92 44.45"/><polygon class="cls-2" points="144.64 33.34 144.64 55.14 115.71 43.35 115.71 39.7 124.63 37.93 124.63 45.45 135.16 44.04 135.16 35.81 144.64 33.34"/><polygon class="cls-3" points="106.07 11.11 106.07 27.24 96.42 22.61 96.42 14.65 106.07 11.11"/><polygon class="cls-4" points="86.55 170.56 56.65 182.73 86.78 200 86.78 170.65 86.55 170.56"/><polygon class="cls-5" points="86.55 78.66 0 113.89 0 140.77 86.53 105.54 86.78 105.64 86.78 78.75 86.55 78.66"/><polygon class="cls-6" points="86.78 151.59 86.78 124.7 86.55 124.61 9.79 155.86 37.2 171.58 86.53 151.49 86.78 151.59"/><polygon class="cls-7" points="86.53 59.59 86.78 59.69 86.78 0 77.14 5.56 77.14 22.61 67.5 27.24 67.5 11.11 57.85 16.67 57.85 43.35 28.93 55.14 28.93 33.34 19.29 38.89 19.29 50.39 9.64 55.02 9.64 44.45 6.74 46.12 0 50.04 0 94.83 86.53 59.59"/><polygon class="cls-8" points="19.29 46.22 19.29 50.39 9.64 55.02 9.64 44.45 19.29 46.22"/><polygon class="cls-8" points="57.85 39.7 57.85 43.35 28.93 55.14 28.93 33.34 38.4 35.81 38.4 44.04 48.93 45.45 48.93 37.93 57.85 39.7"/><polygon class="cls-8" points="77.14 14.65 77.14 22.61 67.5 27.24 67.5 11.11 77.14 14.65"/><polygon class="cls-8" points="86.78 78.75 86.78 105.64 173.57 140.81 173.57 113.92 86.78 78.75"/><polygon class="cls-8" points="163.41 155.76 86.78 124.7 86.78 151.59 136.05 171.56 163.41 155.76"/><polygon class="cls-8" points="173.57 94.86 173.57 50.01 163.92 44.45 163.92 55.02 154.28 50.39 154.28 38.89 144.64 33.34 144.64 55.14 115.71 43.35 115.71 16.67 106.07 11.11 106.07 27.24 96.42 22.61 96.42 5.56 86.78 0 86.78 59.69 173.57 94.86"/><polygon class="cls-8" points="86.78 170.65 86.78 200 116.65 182.75 86.78 170.65"/><path class="cls-9" d="M273.27,105.41l-16.66,18.34v24.92H240.09v-98h16.52v50.68l46.76-50.68h19.46L284.89,92.53l40.46,56.14H305.47Z"/><path class="cls-9" d="M384.28,139.57c-5.32,6.58-13.86,9.8-24.64,9.8-16.1,0-26.18-9.94-26.18-23.1,0-13.58,10.22-22.26,28.14-22.4h22.54v-2.24c0-9.38-6-15-17.78-15-7.14,0-14.56,2.52-22,7.56L337.8,83c10.36-6.16,17.92-9.38,32.06-9.38,19.18,0,30,9.8,30.1,26.18l.14,48.86H384.28Zm-.14-17.08v-6.86H364c-10.5,0-15.4,2.8-15.4,9.94,0,6.72,5.46,11.06,14.42,11.06C374.48,136.63,383.3,130.61,384.14,122.49Z"/><path class="cls-9" d="M470,81.05,464.08,93c-6.58-4.06-14.84-6.58-21.42-6.58-6.3,0-10.92,2.1-10.92,7.42,0,13.72,39.62,6.3,39.48,33.32,0,15.26-13.58,22.12-28.56,22.12-10.92,0-22.54-3.64-30-10.36l5.74-11.48c6.44,5.74,16.8,9.24,24.92,9.24,6.86,0,12.18-2.38,12.18-8,0-15.26-39.2-6.72-39.06-33.6,0-15.12,13.16-21.56,27.44-21.56C453.3,73.49,463.24,76.29,470,81.05Z"/><path class="cls-9" d="M529.6,143.91a35.76,35.76,0,0,1-18.34,5.46c-11.2,0-20.86-6.44-20.86-21.7V89H479.9V77h10.5V56.55h16V77h22V89h-22v35.7c0,7.7,2.94,10.08,8,10.08,3.36,0,6.86-1.12,11.2-3.22Z"/><path class="cls-9" d="M609.12,117.59H552.84c2.52,11.48,11.34,18.62,23.1,18.62a29,29,0,0,0,21-8.68l8.54,9.1c-7.28,8-17.92,12.6-30.8,12.6-23,0-38.08-15.26-38.08-37.66s15.54-37.8,37.66-37.94C600.44,73.63,611.08,90.71,609.12,117.59Zm-14-11.76c-.56-12-8.54-19.32-20.72-19.32-11.76,0-20,7.42-21.84,19.32Z"/><path class="cls-9" d="M626.62,148.67V44.79h16.1V148.67Z"/><path class="cls-9" d="M737.92,111.43c0,22.4-15.82,37.8-38.78,37.8s-38.92-15.4-38.92-37.8,15.82-37.8,38.92-37.8S737.92,88.89,737.92,111.43Zm-61.6.14c0,14.42,9.38,24.22,22.82,24.22s22.68-9.8,22.68-24.22-9.38-24.08-22.68-24.08S676.32,97.29,676.32,111.57Z"/></svg>